<svg width="29" height="16" viewBox="0 0 29 16" fill="none" xmlns="http://www.w3.org/2000/svg">
<path d="M0.638335 0.611838C1.04718 0.220079 1.60163 0 2.17974 0C2.75785 0 3.3123 0.220079 3.72115 0.611838L14.5132 10.9559L25.3052 0.611838C25.7164 0.231181 26.2671 0.0205496 26.8387 0.0253108C27.4104 0.0300721 27.9572 0.249845 28.3614 0.637294C28.7657 1.02474 28.995 1.54887 28.9999 2.09678C29.0049 2.6447 28.7851 3.17256 28.388 3.56668L16.0546 15.3882C15.6457 15.7799 15.0913 16 14.5132 16C13.9351 16 13.3806 15.7799 12.9718 15.3882L0.638335 3.56668C0.229609 3.17481 0 2.64338 0 2.08926C0 1.53515 0.229609 1.00372 0.638335 0.611838Z" fill="white"/>
</svg>
