<svg width="40" height="40" viewBox="0 0 40 40" fill="none" xmlns="http://www.w3.org/2000/svg">
<path d="M20 0C16.0444 0 12.1776 1.17298 8.8886 3.37061C5.59962 5.56824 3.03617 8.69181 1.52242 12.3463C0.00866568 16.0009 -0.387401 20.0222 0.384303 23.9018C1.15601 27.7814 3.06082 31.3451 5.85787 34.1421C8.65492 36.9392 12.2186 38.844 16.0982 39.6157C19.9778 40.3874 23.9992 39.9913 27.6537 38.4776C31.3082 36.9638 34.4318 34.4004 36.6294 31.1114C38.827 27.8224 40 23.9556 40 20C40 17.3736 39.4827 14.7728 38.4776 12.3463C37.4725 9.91982 35.9993 7.71504 34.1421 5.85786C32.285 4.00069 30.0802 2.5275 27.6537 1.52241C25.2272 0.517315 22.6264 0 20 0V0ZM20 4C24.1095 3.99836 28.0595 5.58986 31.02 8.44C27.9641 10.2324 24.7258 11.694 21.36 12.8C19.685 9.91365 17.7646 7.17688 15.62 4.62C17.0439 4.20999 18.5182 4.0013 20 4V4ZM11.78 6.3C13.8754 8.69701 15.7559 11.2736 17.4 14C13.4742 14.9748 9.44502 15.4717 5.40001 15.48H4.68001C5.81441 11.6393 8.34788 8.36361 11.78 6.3V6.3ZM8.00001 30.62C5.39752 27.6975 3.97217 23.9132 4.00001 20C4.00001 19.8 4.00001 19.6 4.00001 19.42H5.36001C10.0948 19.3777 14.8028 18.7051 19.36 17.42C20 18.64 20.6 19.9 21.18 21.2C18.063 22.2988 15.16 23.9296 12.6 26.02L12 26.5C10.5742 27.7805 9.23779 29.157 8.00001 30.62V30.62ZM20 36C16.8122 36.0071 13.6964 35.0521 11.06 33.26C12.0337 32.1432 13.0757 31.0878 14.18 30.1L14.82 29.56C17.1863 27.5698 19.898 26.031 22.82 25.02C24.0227 28.272 24.9591 31.6163 25.62 35.02C23.8196 35.6774 21.9166 36.0092 20 36V36ZM29.26 33.02C28.6057 29.9931 27.7504 27.0132 26.7 24.1H27.38C27.4588 24.0805 27.5412 24.0805 27.62 24.1H27.84H28.04H29C31.1047 24.106 33.1936 24.4643 35.18 25.16C34.0887 28.3407 32.0158 31.0929 29.26 33.02V33.02ZM29 20C28.58 20 28.16 20 27.76 20C27.501 19.9674 27.239 19.9674 26.98 20C26.4364 20.0334 25.8954 20.1002 25.36 20.2H25.16C24.58 18.86 23.98 17.56 23.32 16.2C26.9013 14.9701 30.3408 13.361 33.58 11.4C35.1869 13.9787 36.0263 16.9617 36 20C36 20.34 36 20.68 36 21.02C33.7334 20.3204 31.372 19.9764 29 20V20Z" fill="white"/>
</svg>
