<svg width="47" height="34" viewBox="0 0 47 34" fill="none" xmlns="http://www.w3.org/2000/svg">
<path d="M2 10.4L1.25789 8.54278C0.498218 8.84633 0 9.58193 0 10.4C0 11.2181 0.498218 11.9537 1.25789 12.2572L2 10.4ZM23.022 2L23.7641 0.142779C23.2877 -0.0475929 22.7563 -0.0475929 22.2799 0.142779L23.022 2ZM44.044 10.4L44.7861 12.2572C45.5458 11.9537 46.044 11.2181 46.044 10.4C46.044 9.58193 45.5458 8.84633 44.7861 8.54278L44.044 10.4ZM23.022 18.8L22.2799 20.6572C22.7563 20.8476 23.2877 20.8476 23.7641 20.6572L23.022 18.8ZM46.044 10.51C46.044 9.40543 45.1486 8.51 44.044 8.51C42.9394 8.51 42.044 9.40543 42.044 10.51H46.044ZM42.044 19.733C42.044 20.8376 42.9394 21.733 44.044 21.733C45.1486 21.733 46.044 20.8376 46.044 19.733H42.044ZM13.556 14.825C13.556 13.7204 12.6606 12.825 11.556 12.825C10.4514 12.825 9.556 13.7204 9.556 14.825H13.556ZM11.556 27.267H9.556C9.556 27.803 9.77117 28.3166 10.1532 28.6926L11.556 27.267ZM34.488 27.267L35.8908 28.6926C36.2728 28.3166 36.488 27.803 36.488 27.267H34.488ZM36.488 14.825C36.488 13.7204 35.5926 12.825 34.488 12.825C33.3834 12.825 32.488 13.7204 32.488 14.825H36.488ZM2.74211 12.2572L23.7641 3.85722L22.2799 0.142779L1.25789 8.54278L2.74211 12.2572ZM22.2799 3.85722L43.3019 12.2572L44.7861 8.54278L23.7641 0.142779L22.2799 3.85722ZM43.3019 8.54278L22.2799 16.9428L23.7641 20.6572L44.7861 12.2572L43.3019 8.54278ZM23.7641 16.9428L2.74211 8.54278L1.25789 12.2572L22.2799 20.6572L23.7641 16.9428ZM42.044 10.51V19.733H46.044V10.51H42.044ZM9.556 14.825V27.267H13.556V14.825H9.556ZM11.556 27.267C10.1532 28.6926 10.1537 28.6931 10.1543 28.6936C10.1545 28.6938 10.155 28.6943 10.1554 28.6947C10.1562 28.6955 10.1571 28.6963 10.158 28.6972C10.1599 28.6991 10.1621 28.7012 10.1646 28.7036C10.1695 28.7085 10.1757 28.7145 10.1831 28.7215C10.1978 28.7357 10.2172 28.7543 10.2413 28.777C10.2896 28.8223 10.3565 28.8842 10.4415 28.9603C10.6112 29.1123 10.8535 29.3215 11.1625 29.5686C11.7792 30.0616 12.6697 30.7123 13.7873 31.3623C16.0072 32.6535 19.2235 34 23.021 34V30C20.1635 30 17.6473 28.98 15.7984 27.9047C14.8817 27.3715 14.1538 26.8389 13.6606 26.4445C13.4147 26.2479 13.2292 26.0873 13.1099 25.9804C13.0503 25.9271 13.0074 25.8873 12.9819 25.8633C12.9692 25.8514 12.9608 25.8434 12.9569 25.8396C12.955 25.8377 12.9542 25.8369 12.9545 25.8372C12.9546 25.8374 12.955 25.8378 12.9558 25.8385C12.9561 25.8388 12.9565 25.8392 12.957 25.8397C12.9573 25.84 12.9577 25.8404 12.9578 25.8405C12.9583 25.841 12.9588 25.8414 11.556 27.267ZM23.021 34C26.8194 34 30.0362 32.6535 32.2563 31.3624C33.3741 30.7123 34.2647 30.0617 34.8814 29.5686C35.1904 29.3215 35.4328 29.1123 35.6025 28.9603C35.6874 28.8843 35.7544 28.8223 35.8026 28.777C35.8268 28.7543 35.8462 28.7357 35.8609 28.7215C35.8683 28.7145 35.8745 28.7085 35.8794 28.7036C35.8819 28.7012 35.8841 28.6991 35.886 28.6972C35.8869 28.6963 35.8878 28.6955 35.8886 28.6947C35.889 28.6943 35.8895 28.6938 35.8897 28.6936C35.8903 28.6931 35.8908 28.6926 34.488 27.267C33.0852 25.8414 33.0857 25.841 33.0862 25.8405C33.0863 25.8404 33.0867 25.84 33.087 25.8397C33.0875 25.8392 33.0879 25.8388 33.0882 25.8385C33.089 25.8378 33.0894 25.8374 33.0895 25.8372C33.0898 25.8369 33.089 25.8377 33.0871 25.8396C33.0832 25.8434 33.0748 25.8514 33.0621 25.8633C33.0366 25.8873 32.9937 25.9271 32.9341 25.9804C32.8148 26.0873 32.6293 26.2478 32.3834 26.4445C31.8902 26.8388 31.1622 27.3714 30.2454 27.9046C28.3963 28.98 25.8796 30 23.021 30V34ZM36.488 27.267V14.825H32.488V27.267H36.488Z" fill="#E9A94E"/>
</svg>
