<svg width="65" height="44" viewBox="0 0 65 44" fill="none" xmlns="http://www.w3.org/2000/svg">
<path d="M38 44H54C55.977 44 57.657 43.554 59.052 42.777L38 30.219V44ZM63.66 36.21C63.888 35.193 64.004 34.116 64.004 32.999V27.999H49.894L63.656 36.21H63.66ZM0.349997 7.759C0.113 8.82293 -0.00439445 9.91 -3.31184e-06 11V16H14.164L0.349997 7.759ZM26 0H10C8.037 0 6.368 0.44 4.979 1.206L26 13.746V0ZM5.043 42.826C6.419 43.57 8.066 44 10 44H26V30.324L5.043 42.826ZM-3.31184e-06 28V33C-3.31184e-06 34.151 0.121997 35.26 0.362997 36.303L14.282 28H-3.31184e-06ZM59.115 1.255C57.709 0.457 56.006 0 54 0H38V13.851L59.115 1.255ZM64 16V11C64 9.906 63.887 8.851 63.668 7.853L50.012 16H64Z" fill="#2E3192"/>
<path d="M50.012 16L63.668 7.853C63.042 4.989 61.518 2.618 59.115 1.255L38 13.851V0H36V18H64V16H50.012ZM-3.31184e-06 26V28H14.282L0.362997 36.303C1.024 39.158 2.594 41.502 5.043 42.826L26 30.324V44H28V26H-3.31184e-06ZM64 26H36V44H38V30.219L59.052 42.777C61.473 41.429 63.016 39.072 63.656 36.212L49.894 27.999L64 28V26ZM26 0V13.746L4.979 1.206C2.549 2.546 0.996997 4.9 0.349997 7.759L14.164 16H-3.31184e-06V18H28V0H26Z" fill="white"/>
<path d="M36 18V0H28V18H-3.31184e-06V26H28V44H36V26H64V18H36Z" fill="#E72133"/>
<path d="M21.938 16L1.888 4.031C1.457 4.671 1.111 5.375 0.824997 6.125L17.372 16H21.938ZM63.09 38.09L46.277 28H41.621L61.934 40.219C62.405 39.5608 62.7933 38.8471 63.09 38.094V38.09ZM60.719 2.391L37.969 16L42.588 16.003L62.219 4.25C61.781 3.453 61.319 2.939 60.719 2.391ZM1.813 39.875C2.26283 40.5601 2.80417 41.1805 3.422 41.719L26.063 28H21.5L1.813 39.875Z" fill="#E72133"/>
</svg>
