<svg width="42" height="46" viewBox="0 0 42 46" fill="none" xmlns="http://www.w3.org/2000/svg">
<path d="M17.1406 40.0059C17.1406 39.7126 17.076 39.4229 16.9515 39.1573C16.827 38.8917 16.6457 38.6567 16.4202 38.469C16.1948 38.2814 15.9309 38.1456 15.6471 38.0713C15.3634 37.997 15.0668 37.986 14.7783 38.0391C12.1602 38.5196 8.85449 38.5918 7.97557 36.1231C7.20919 34.2111 5.93972 32.5421 4.30175 31.2931C4.18489 31.2295 4.0735 31.1563 3.96875 31.0743C3.8254 30.6962 3.57078 30.3704 3.23848 30.1399C2.90618 29.9094 2.51182 29.7851 2.10741 29.7833H2.09765C1.56885 29.7831 1.06151 29.9924 0.686677 30.3654C0.311843 30.7384 0.10005 31.2447 0.0976538 31.7735C0.0898338 33.4044 1.71965 34.4493 2.38085 34.8028C3.16054 35.5862 3.78716 36.5083 4.22851 37.5216C4.95703 39.5685 7.07421 42.6739 13.1602 42.2736C13.1622 42.3439 13.1641 42.4103 13.165 42.4708L13.1738 43.006C13.1738 43.5364 13.3845 44.0451 13.7596 44.4202C14.1347 44.7953 14.6434 45.006 15.1738 45.006C15.7042 45.006 16.213 44.7953 16.588 44.4202C16.9631 44.0451 17.1738 43.5364 17.1738 43.006L17.1641 42.3693C17.1543 41.9903 17.1406 41.4414 17.1406 40.0059ZM38.4746 9.75388C38.5381 9.50388 38.6006 9.22654 38.6553 8.91404C38.9788 6.68521 38.6968 4.41042 37.8389 2.32804C37.7306 2.05656 37.5643 1.81205 37.3516 1.61164C37.1389 1.41123 36.8849 1.25978 36.6074 1.1679C35.8954 0.927656 33.2666 0.454997 28.2393 3.6679C24.0604 2.68449 19.7102 2.68449 15.5313 3.6679C10.5244 0.502057 7.90917 0.931656 7.20409 1.15822C6.91982 1.24638 6.65888 1.39703 6.44039 1.59913C6.2219 1.80123 6.0514 2.04967 5.94139 2.32622C5.066 4.44858 4.78708 6.76977 5.13475 9.0391C5.18359 9.29496 5.23631 9.5313 5.29101 9.74808C3.63415 11.955 2.75163 14.6468 2.78027 17.4063C2.77487 18.0219 2.80324 18.6375 2.86523 19.25C3.53323 28.4551 9.53323 31.2188 13.7139 32.168C13.627 32.418 13.5479 32.6856 13.4775 32.9688C13.3522 33.4834 13.4361 34.0267 13.7107 34.4795C13.9854 34.9324 14.4284 35.2578 14.9427 35.3845C15.4569 35.5112 16.0004 35.4288 16.454 35.1554C16.9076 34.8819 17.2342 34.4397 17.3623 33.9258C17.4896 33.2594 17.8157 32.6473 18.2979 32.17C18.5894 31.9147 18.8004 31.5803 18.9054 31.2073C19.0103 30.8344 19.0046 30.439 18.8889 30.0692C18.7732 29.6994 18.5526 29.3712 18.2538 29.1245C17.9551 28.8779 17.591 28.7233 17.2061 28.6797C10.2979 27.8907 7.29881 25.0762 6.84765 18.8829C6.79768 18.3923 6.77518 17.8994 6.78027 17.4063C6.74819 15.4396 7.39793 13.5225 8.61913 11.9805C8.74184 11.8198 8.87254 11.6653 9.01073 11.5176C9.2556 11.2436 9.42023 10.9075 9.48656 10.546C9.55289 10.1846 9.51835 9.81188 9.38673 9.4688C9.2518 9.10786 9.14791 8.73606 9.07619 8.35746C8.91326 7.28089 8.9667 6.18264 9.23339 5.12698C10.9717 5.61792 12.6076 6.41706 14.0634 7.48634C14.3041 7.64669 14.5765 7.75339 14.8621 7.79923C15.1477 7.84506 15.4398 7.82894 15.7187 7.75198C19.7609 6.65498 24.0225 6.65567 28.0644 7.75398C28.3447 7.83086 28.6384 7.84605 28.9251 7.79851C29.2119 7.75097 29.485 7.64183 29.7255 7.4786C31.1745 6.40487 32.8036 5.59859 34.5361 5.09774C34.8016 6.12804 34.861 7.20065 34.7109 8.25398C34.6384 8.66905 34.5252 9.07597 34.373 9.46884C34.2413 9.81192 34.2068 10.1846 34.2731 10.5461C34.3395 10.9075 34.5041 11.2437 34.749 11.5177C34.9033 11.6915 35.0576 11.879 35.1962 12.0548C36.4088 13.5706 37.0475 15.4657 37 17.4063C37.0036 17.9255 36.9785 18.4445 36.9248 18.961C36.4844 25.0723 33.4736 27.8887 26.5332 28.6797C26.1481 28.7236 25.7841 28.8784 25.4853 29.1253C25.1866 29.3722 24.966 29.7006 24.8505 30.0706C24.7349 30.4405 24.7293 30.8361 24.8344 31.2091C24.9395 31.5822 25.1507 31.9167 25.4424 32.1719C25.9396 32.6619 26.2665 33.2986 26.375 33.9883C26.5101 34.5237 26.5722 35.0749 26.5596 35.627V40.295C26.54 41.5899 26.54 42.5606 26.54 43.0059C26.54 43.5363 26.7507 44.045 27.1258 44.4201C27.5009 44.7952 28.0096 45.0059 28.54 45.0059C29.0704 45.0059 29.5791 44.7952 29.9542 44.4201C30.3293 44.045 30.54 43.5363 30.54 43.0059C30.54 42.5723 30.54 41.6211 30.5595 40.3262V35.627C30.5756 34.7426 30.4715 33.8602 30.25 33.0039C30.1866 32.7228 30.109 32.4451 30.0175 32.1719C33.06 31.6665 35.8245 30.0978 37.8188 27.7451C39.8131 25.3925 40.9078 22.4085 40.9082 19.3243C40.9741 18.6871 41.0047 18.0468 41 17.4063C41.0444 14.6438 40.1545 11.9473 38.4746 9.75392L38.4746 9.75388Z" fill="white"/>
</svg>
