<svg width="23" height="22" viewBox="0 0 23 22" fill="none" xmlns="http://www.w3.org/2000/svg">
<path d="M16.6576 7.81427C15.7721 7.8139 14.9002 8.03293 14.12 8.4518C14.0488 8.26428 13.9223 8.10287 13.7572 7.989C13.5921 7.87512 13.3962 7.81418 13.1956 7.81427H9.23911C9.10919 7.8142 8.98054 7.83973 8.86049 7.88942C8.74045 7.9391 8.63139 8.01195 8.53952 8.10382C8.44766 8.19568 8.3748 8.30475 8.32512 8.42479C8.27544 8.54483 8.2499 8.67349 8.24998 8.8034V20.673C8.2499 20.8029 8.27543 20.9315 8.32512 21.0516C8.3748 21.1716 8.44765 21.2807 8.53952 21.3726C8.63138 21.4644 8.74045 21.5373 8.86049 21.587C8.98053 21.6366 9.10919 21.6622 9.23911 21.6621H13.1956C13.3255 21.6622 13.4542 21.6366 13.5742 21.587C13.6943 21.5373 13.8034 21.4644 13.8952 21.3726C13.9871 21.2807 14.0599 21.1716 14.1096 21.0516C14.1593 20.9315 14.1848 20.8029 14.1848 20.673V15.2328C14.1848 14.9704 14.289 14.7188 14.4745 14.5333C14.66 14.3478 14.9116 14.2436 15.1739 14.2436C15.4362 14.2436 15.6878 14.3478 15.8733 14.5333C16.0588 14.7188 16.163 14.9704 16.163 15.2328V20.673C16.1629 20.8029 16.1885 20.9315 16.2382 21.0516C16.2878 21.1716 16.3607 21.2807 16.4526 21.3726C16.5444 21.4644 16.6535 21.5373 16.7735 21.587C16.8936 21.6366 17.0222 21.6622 17.1521 21.6621H21.1087C21.2386 21.6622 21.3672 21.6366 21.4873 21.587C21.6073 21.5373 21.7164 21.4644 21.8083 21.3726C21.9001 21.2807 21.973 21.1716 22.0227 21.0516C22.0723 20.9315 22.0979 20.8029 22.0978 20.673V13.2545C22.096 11.8122 21.5223 10.4295 20.5024 9.40966C19.4826 8.38981 18.0999 7.81607 16.6576 7.81427V7.81427ZM20.1195 19.6838H18.1413V15.2328C18.1413 14.4458 17.8286 13.691 17.2722 13.1345C16.7157 12.578 15.9609 12.2654 15.1739 12.2654C14.3869 12.2654 13.6321 12.578 13.0756 13.1345C12.5191 13.691 12.2065 14.4458 12.2065 15.2328V19.6838H10.2282V9.79253H12.2065V10.488C12.2066 10.693 12.2704 10.8928 12.3889 11.06C12.5075 11.2272 12.6751 11.3534 12.8685 11.4212C13.0618 11.4891 13.2715 11.4952 13.4686 11.4388C13.6656 11.3824 13.8402 11.2662 13.9684 11.1062C14.4123 10.5425 15.0212 10.1314 15.71 9.93039C16.3988 9.7294 17.1332 9.74854 17.8106 9.98513C18.4881 10.2217 19.0747 10.6639 19.4886 11.2501C19.9026 11.8362 20.1231 12.5369 20.1195 13.2545V19.6838ZM6.27172 7.81427H2.3152C2.18528 7.8142 2.05663 7.83973 1.93658 7.88942C1.81654 7.9391 1.70747 8.01195 1.61561 8.10382C1.52375 8.19568 1.45089 8.30475 1.40121 8.42479C1.35153 8.54483 1.32599 8.67349 1.32607 8.8034V20.673C1.32599 20.8029 1.35152 20.9315 1.40121 21.0516C1.45089 21.1716 1.52374 21.2807 1.61561 21.3726C1.70747 21.4644 1.81654 21.5373 1.93658 21.587C2.05662 21.6366 2.18528 21.6622 2.3152 21.6621H6.27172C6.40163 21.6622 6.53029 21.6366 6.65033 21.587C6.77037 21.5373 6.87944 21.4644 6.97131 21.3726C7.06317 21.2807 7.13603 21.1716 7.18571 21.0516C7.23539 20.9315 7.26092 20.8029 7.26085 20.673V8.8034C7.26092 8.67349 7.23539 8.54483 7.1857 8.42479C7.13602 8.30475 7.06317 8.19568 6.9713 8.10382C6.87944 8.01195 6.77037 7.9391 6.65033 7.88942C6.53029 7.83973 6.40163 7.8142 6.27172 7.81427V7.81427ZM5.28259 19.6838H3.30433V9.79253H5.28259V19.6838ZM4.30795 0.438331C3.87507 0.412419 3.44144 0.474827 3.03343 0.62176C2.62542 0.768692 2.25157 0.997079 1.9346 1.29303C1.61762 1.58898 1.36416 1.94631 1.18962 2.3433C1.01509 2.74028 0.923117 3.16861 0.919313 3.60225C0.915508 4.03589 0.999947 4.46578 1.16749 4.86576C1.33504 5.26574 1.58219 5.62747 1.89392 5.92893C2.20565 6.2304 2.57544 6.46531 2.98081 6.61938C3.38618 6.77345 3.81864 6.84346 4.25191 6.82514H4.27993C4.71395 6.85092 5.14868 6.78794 5.55754 6.64003C5.9664 6.49212 6.34081 6.2624 6.65789 5.96491C6.97497 5.66741 7.22807 5.30839 7.40171 4.90977C7.57535 4.51116 7.66588 4.08132 7.66779 3.64653C7.6697 3.21175 7.58293 2.78114 7.4128 2.38101C7.24266 1.98089 6.99273 1.61966 6.67827 1.31939C6.36381 1.01913 5.99143 0.786133 5.58388 0.634645C5.17633 0.483158 4.74217 0.416359 4.30794 0.438331H4.30795ZM4.27994 4.84688H4.25191C4.08086 4.86766 3.90734 4.85161 3.743 4.79983C3.57865 4.74805 3.42728 4.66172 3.29903 4.54665C3.17078 4.43157 3.06861 4.2904 2.99939 4.13261C2.93017 3.97481 2.89548 3.80404 2.89767 3.63175C2.89767 2.89376 3.45115 2.41658 4.30795 2.41658C4.48075 2.39355 4.65648 2.40781 4.8233 2.45841C4.99012 2.509 5.14417 2.59476 5.27505 2.70991C5.40594 2.82506 5.51064 2.96691 5.58208 3.12593C5.65353 3.28494 5.69007 3.45742 5.68925 3.63175C5.68925 4.36973 5.13576 4.84688 4.27994 4.84688Z" fill="white"/>
</svg>
