<svg width="47" height="35" viewBox="0 0 47 35" fill="none" xmlns="http://www.w3.org/2000/svg">
<path d="M8.552 10.104C8.552 11.608 8.344 13.608 7.928 16.104C8.12 15.944 8.408 15.672 8.792 15.288C9.24 14.84 10.136 14.184 11.48 13.32L12.2 12.792L13.64 12.072L15.224 11.016C15.16 10.952 15.24 10.792 15.464 10.536C16.072 9.48 16.424 8.552 16.52 7.752C16.52 7.336 16.456 7.032 16.328 6.84C16.2 6.616 15.8 6.472 15.128 6.408C15.064 6.344 14.76 6.264 14.216 6.168C12.904 6.168 12.024 6.248 11.576 6.408C11.16 6.568 10.84 6.648 10.616 6.648L9.896 6.84L9.08 6.888L8.888 8.184C8.888 8.216 8.824 8.536 8.696 9.144C8.696 9.368 8.648 9.688 8.552 10.104ZM16.712 31.32C16.232 31.16 15.56 30.696 14.696 29.928C14.536 29.704 14.12 29.32 13.448 28.776C12.808 28.392 12.008 27.64 11.048 26.52C11.048 26.488 10.936 26.232 10.712 25.752C10.328 25.4 9.96 24.696 9.608 23.64C9.576 23.608 9.528 23.544 9.464 23.448C9.4 23.352 9.288 23.208 9.128 23.016C9 22.792 8.856 22.424 8.696 21.912C8.536 21.4 8.216 20.84 7.736 20.232H7.544C7.544 20.424 7.496 20.696 7.4 21.048V22.008L7.112 24.792L6.392 29.448C6.52 29.704 6.52 30.136 6.392 30.744C6.392 31 6.312 31.416 6.152 31.992C5.992 32.568 5.752 32.952 5.432 33.144C5.112 33.336 4.488 33.368 3.56 33.24C3.24 33.112 2.792 32.664 2.216 31.896C1.992 31.8 1.672 31.288 1.256 30.36C1.32 29.784 1.336 29.432 1.304 29.304C1.272 29.144 1.256 28.952 1.256 28.728C1.256 28.504 1.272 28.36 1.304 28.296C1.24 28.36 1.24 28.04 1.304 27.336V27C1.304 26.872 1.4 26.36 1.592 25.464C1.592 24.792 1.592 24.328 1.592 24.072C1.624 23.784 1.736 23.448 1.928 23.064V21.768L1.976 20.472C2.168 19.896 2.264 19.224 2.264 18.456C2.328 18.072 2.36 17.704 2.36 17.352C2.392 16.968 2.456 16.552 2.552 16.104C2.552 15.4 2.6 14.872 2.696 14.52C2.792 14.136 2.84 13.88 2.84 13.752C2.872 13.592 2.904 13.352 2.936 13.032L3.272 10.968L3.416 7.944L2.84 7.56C1.816 7.144 1.096 6.728 0.68 6.312C0.52 6.216 0.456 5.976 0.488 5.592C0.552 5.176 0.776 4.84 1.16 4.584C1.608 4.584 2.264 4.312 3.128 3.768C3.224 3.768 3.512 3.608 3.992 3.288L4.856 3C4.952 2.904 5.352 2.728 6.056 2.472C6.216 2.472 6.472 2.392 6.824 2.232C7.176 2.04 7.544 1.928 7.928 1.896C8.248 1.864 8.888 1.784 9.848 1.656C10.84 1.496 11.672 1.512 12.344 1.704C12.76 1.704 13.208 1.784 13.688 1.944C14.456 1.944 15.32 2.2 16.28 2.712C16.504 2.712 16.824 2.856 17.24 3.144L18.152 3.576L19.352 4.536C20.024 5.08 20.632 5.768 21.176 6.6C21.56 6.984 21.704 7.48 21.608 8.088C21.16 10.872 19.224 13.64 15.8 16.392L14.408 17.016L12.056 18.504C12.856 19.624 13.896 20.936 15.176 22.44C15.272 22.664 15.64 23.112 16.28 23.784L17.912 25.8L18.488 26.664L19.784 28.104C19.88 28.328 20.152 28.6 20.6 28.92L21.416 29.688C22.152 30.264 22.456 30.92 22.328 31.656C22.2 32.392 21.752 32.776 20.984 32.808L19.832 32.712L17.528 32.088L16.712 31.32ZM30.7359 16.296C31.4399 15.912 31.8719 15.72 32.0319 15.72C32.2239 15.72 32.5279 15.64 32.9439 15.48C33.3599 15.32 33.5679 15.224 33.5679 15.192C33.5679 15.128 33.6799 15.016 33.9039 14.856C34.1279 14.664 34.3839 14.456 34.6719 14.232C34.9919 13.976 35.2639 13.768 35.4879 13.608C35.7439 13.448 36.0639 13.16 36.4479 12.744C36.8319 12.328 37.1519 11.912 37.4079 11.496C37.6959 11.048 37.9039 10.744 38.0319 10.584C38.1599 10.392 38.2399 10.216 38.2719 10.056C38.3039 9.864 38.3359 9.608 38.3679 9.288C38.3999 8.968 38.4319 8.712 38.4639 8.52C38.4959 8.296 38.4799 8.12 38.4159 7.992C38.3839 7.832 38.3039 7.704 38.1759 7.608C38.0799 7.48 37.9839 7.384 37.8879 7.32C37.8239 7.256 37.6959 7.192 37.5039 7.128C37.3439 7.032 37.1679 6.92 36.9759 6.792C36.6879 6.568 36.1919 6.456 35.4879 6.456C34.7839 6.424 34.3039 6.44 34.0479 6.504C33.7919 6.536 33.4879 6.68 33.1359 6.936L32.4159 7.272C32.0319 8.296 31.8239 9.112 31.7919 9.72C31.7599 10.296 31.5839 11.64 31.2639 13.752C31.1039 14.296 30.9279 15.144 30.7359 16.296ZM33.3759 28.248C33.3759 28.184 33.4719 28.104 33.6639 28.008C33.8879 27.88 34.1439 27.816 34.4319 27.816C34.7199 27.784 34.9279 27.672 35.0559 27.48C35.3759 27.32 35.5999 27.224 35.7279 27.192C35.8559 27.16 36.3519 26.792 37.2159 26.088C37.2799 25.992 37.4079 25.832 37.5999 25.608C37.8239 25.352 37.9679 25.192 38.0319 25.128C38.2239 24.872 38.6719 24.584 39.3759 24.264L39.8079 23.448L39.9519 22.872C39.9839 22.808 40.0799 22.648 40.2399 22.392C40.4319 22.136 40.5599 21.912 40.6239 21.72C40.7199 21.528 40.7999 21.304 40.8639 21.048C40.9919 20.504 40.7519 20.136 40.1439 19.944C38.8959 19.432 38.0479 19.24 37.5999 19.368C36.6399 19.24 35.8559 19.224 35.2479 19.32C34.6399 19.416 34.1279 19.416 33.7119 19.32C32.6239 19.384 31.9839 19.448 31.7919 19.512C31.6319 19.576 31.3599 19.752 30.9759 20.04C30.5919 20.296 30.3519 20.456 30.2559 20.52C29.9679 21.896 29.8079 23.272 29.7759 24.648C29.7759 25.992 29.7439 26.872 29.6799 27.288L29.9199 29.016C30.1119 29.08 30.4959 29.096 31.0719 29.064C31.6479 29 31.9679 28.936 32.0319 28.872C32.1279 28.776 32.4159 28.68 32.8959 28.584C33.2159 28.648 33.3759 28.536 33.3759 28.248ZM25.3599 18.168C25.4239 17.464 25.5039 16.936 25.5999 16.584C25.6959 16.232 25.7599 15.832 25.7919 15.384C25.8239 14.904 25.9199 14.504 26.0799 14.184C26.0799 14.12 26.1119 13.88 26.1759 13.464C26.2719 13.048 26.3199 12.728 26.3199 12.504C26.3519 12.28 26.3519 12.136 26.3199 12.072C26.3199 11.976 26.3039 11.928 26.2719 11.928C26.2399 11.928 26.0159 12.056 25.5999 12.312C25.1839 12.536 24.9119 12.648 24.7839 12.648C24.6559 12.616 24.3519 12.424 23.8719 12.072C23.6479 11.848 23.4719 11.736 23.3439 11.736C23.0879 11.64 22.9599 11.416 22.9599 11.064C22.9919 10.712 22.9759 10.248 22.9119 9.672C22.9119 9.064 22.9439 8.664 23.0079 8.472C23.0399 8.44 23.1679 8.344 23.3919 8.184C23.6159 8.024 23.9839 7.688 24.4959 7.176C25.7439 6.184 26.4159 5.56 26.5119 5.304C26.6079 5.24 26.7199 5.144 26.8479 5.016C27.0079 4.856 27.1519 4.744 27.2799 4.68C27.5679 4.552 27.7279 4.424 27.7599 4.296C27.8239 4.296 27.9839 4.152 28.2399 3.864C28.3679 3.608 28.5119 3.48 28.6719 3.48C28.8319 3.48 29.1199 3.32 29.5359 3C29.6959 3 29.8239 2.952 29.9199 2.856C30.0479 2.76 30.3039 2.632 30.6879 2.472C31.0719 2.312 31.3119 2.216 31.4079 2.184C31.5359 2.12 31.6959 2.04 31.8879 1.944C32.0799 1.816 32.2559 1.72 32.4159 1.656C32.6079 1.592 32.7839 1.512 32.9439 1.416C33.2959 1.16 33.5199 0.999999 33.6159 0.935998C33.7119 0.871999 33.9679 0.855999 34.3839 0.887999C34.8319 0.887999 35.2319 0.967999 35.5839 1.128C35.9679 1.288 36.3519 1.368 36.7359 1.368C36.8319 1.304 37.0879 1.336 37.5039 1.464C37.9519 1.56 38.1759 1.64 38.1759 1.704C38.1759 1.736 38.2719 1.8 38.4639 1.896C39.0399 2.12 39.4079 2.232 39.5679 2.232C39.6319 2.2 39.8079 2.392 40.0959 2.808C40.3839 3.224 40.5759 3.56 40.6719 3.816C40.7039 3.848 40.7839 3.912 40.9119 4.008C41.1999 4.232 41.4719 4.552 41.7279 4.968C41.9839 5.384 42.1759 5.688 42.3039 5.88C42.4639 6.072 42.6239 6.392 42.7839 6.84C42.9439 7.288 43.0559 7.576 43.1199 7.704C43.2159 7.8 43.2639 7.928 43.2639 8.088C43.2959 8.216 43.3439 8.36 43.4079 8.52C43.4719 8.648 43.4079 9.016 43.2159 9.624C43.0239 10.2 42.6239 10.968 42.0159 11.928C41.4079 12.856 40.6559 13.752 39.7599 14.616L38.6559 15.672L40.4319 16.152C40.6559 16.152 41.0879 16.248 41.7279 16.44C42.3999 16.6 42.7359 16.76 42.7359 16.92C42.7359 17.048 43.0879 17.224 43.7919 17.448C43.8239 17.544 43.9839 17.752 44.2719 18.072C44.5599 18.392 44.7999 18.632 44.9919 18.792C45.1839 18.92 45.3279 19.112 45.4239 19.368C45.5519 19.592 45.6479 19.8 45.7119 19.992C45.8399 20.536 45.9679 20.872 46.0959 21C46.2559 21.128 46.1919 21.72 45.9039 22.776C45.6479 23.8 45.4079 24.52 45.1839 24.936C44.9919 25.352 44.8159 25.704 44.6559 25.992C44.4959 26.28 44.3999 26.472 44.3679 26.568C44.0159 27.112 43.7759 27.464 43.6479 27.624C43.5199 27.752 43.3599 27.928 43.1679 28.152C42.9759 28.376 42.7519 28.6 42.4959 28.824C42.2719 29.048 42.0159 29.304 41.7279 29.592C41.4719 29.848 41.2479 30.056 41.0559 30.216C40.8639 30.376 40.6559 30.536 40.4319 30.696C40.2079 30.856 40.0479 30.968 39.9519 31.032C39.8559 31.096 39.6159 31.224 39.2319 31.416C38.8799 31.608 38.5919 31.784 38.3679 31.944C38.1759 32.072 37.8719 32.264 37.4559 32.52C37.0399 32.744 36.4799 33.064 35.7759 33.48L35.1519 33.576C34.7679 33.832 34.1759 34.04 33.3759 34.2L31.3599 34.296C29.5359 34.424 28.1439 34.312 27.1839 33.96C25.5839 33.416 24.7679 32.696 24.7359 31.8C24.7359 31.672 24.3679 31.272 23.6319 30.6L23.5359 29.784C23.6319 29.24 23.7279 28.936 23.8239 28.872C23.8879 28.808 23.9519 28.6 24.0159 28.248L24.3519 25.656C24.4479 25.432 24.5279 24.808 24.5919 23.784C24.6879 22.376 24.7359 21.592 24.7359 21.432C24.7679 21.272 24.8959 20.632 25.1199 19.512C25.0879 19.128 25.1679 18.68 25.3599 18.168Z" fill="white"/>
</svg>
