<svg width="18" height="20" viewBox="0 0 18 20" fill="none" xmlns="http://www.w3.org/2000/svg">
<path d="M17.88 9.42997C17.8086 9.24585 17.7016 9.07763 17.565 8.93497L10.065 1.43497C9.92514 1.29512 9.75911 1.18417 9.57637 1.10848C9.39364 1.03279 9.19779 0.993835 9 0.993835C8.60055 0.993835 8.21746 1.15252 7.935 1.43497C7.79514 1.57483 7.6842 1.74087 7.60851 1.9236C7.53282 2.10633 7.49386 2.30218 7.49386 2.49997C7.49386 2.89943 7.65254 3.28252 7.935 3.56497L12.885 8.49997H1.5C1.10218 8.49997 0.720645 8.65801 0.43934 8.93931C0.158036 9.22062 0 9.60215 0 9.99997C0 10.3978 0.158036 10.7793 0.43934 11.0606C0.720645 11.3419 1.10218 11.5 1.5 11.5H12.885L7.935 16.435C7.79441 16.5744 7.68282 16.7403 7.60666 16.9231C7.53051 17.1059 7.4913 17.302 7.4913 17.5C7.4913 17.698 7.53051 17.8941 7.60666 18.0768C7.68282 18.2596 7.79441 18.4255 7.935 18.565C8.07444 18.7056 8.24035 18.8172 8.42313 18.8933C8.60592 18.9695 8.80198 19.0087 9 19.0087C9.19802 19.0087 9.39408 18.9695 9.57687 18.8933C9.75965 18.8172 9.92556 18.7056 10.065 18.565L17.565 11.065C17.7016 10.9223 17.8086 10.7541 17.88 10.57C18.03 10.2048 18.03 9.79517 17.88 9.42997Z" fill="white"/>
</svg>
