<svg width="28" height="45" viewBox="0 0 28 45" fill="none" xmlns="http://www.w3.org/2000/svg">
<path d="M27.8672 39.0166L25.9434 33.3096C25.8528 33.0415 25.7065 32.7957 25.514 32.5883C25.3215 32.381 25.0872 32.2168 24.8266 32.1066C24.566 31.9964 24.285 31.9428 24.0021 31.9491C23.7192 31.9555 23.4409 32.0218 23.1855 32.1436C22.4124 32.4415 21.5955 32.6098 20.7675 32.6416C20.3023 32.7005 19.8318 32.5827 19.4492 32.3116C19.0998 31.8487 18.9298 31.2749 18.9707 30.6963V22.001H25.004C25.2667 22.0011 25.5268 21.9495 25.7696 21.849C26.0123 21.7486 26.2328 21.6013 26.4186 21.4155C26.6043 21.2298 26.7516 21.0092 26.8521 20.7665C26.9525 20.5238 27.0042 20.2637 27.004 20.001V12.1904C27.0042 11.9278 26.9525 11.6676 26.8521 11.4249C26.7516 11.1822 26.6043 10.9616 26.4186 10.7759C26.2328 10.5901 26.0123 10.4428 25.7696 10.3424C25.5268 10.2419 25.2667 10.1903 25.004 10.1904H19V2.00098C19.0002 1.73829 18.9485 1.47815 18.8481 1.23543C18.7476 0.99271 18.6003 0.772171 18.4146 0.586423C18.2288 0.400676 18.0083 0.253363 17.7656 0.152907C17.5228 0.0524518 17.2627 0.000824408 17 0.000976899H11.1406C10.5709 0.00359434 10.0225 0.217934 9.60196 0.602341C9.18145 0.986749 8.91886 1.51377 8.86524 2.08098C8.7854 4.0761 8.12098 6.00377 6.95458 7.62438C5.78817 9.24499 4.17121 10.4871 2.30468 11.1963C1.91746 11.3355 1.58265 11.5909 1.34599 11.9275C1.10934 12.2642 0.982365 12.6656 0.982422 13.0771V20.2451C0.982272 20.5078 1.0339 20.768 1.13436 21.0107C1.23481 21.2534 1.38213 21.4739 1.56787 21.6597C1.75362 21.8454 1.97416 21.9927 2.21688 22.0932C2.4596 22.1937 2.71974 22.2453 2.98242 22.2451H5.03124V31.3155C5.06488 34.6806 6.42017 37.8977 8.80468 40.2725C10.1349 41.5198 11.699 42.4913 13.4066 43.1309C15.1143 43.7705 16.9317 44.0655 18.754 43.999C18.8614 43.999 18.9708 43.999 19.0802 43.997C22.172 43.9462 26.3165 42.7021 27.6251 40.7822C27.7994 40.5267 27.912 40.2343 27.954 39.9279C27.9961 39.6215 27.9663 39.3095 27.8672 39.0166ZM19.0137 39.9971C17.6684 40.1041 16.3155 39.9303 15.0409 39.4868C13.7663 39.0433 12.5977 38.3398 11.6094 37.4209C9.98173 35.8032 9.05569 33.6101 9.03124 31.3154V20.2451C9.0314 19.9824 8.97977 19.7223 8.87931 19.4796C8.77886 19.2369 8.63154 19.0163 8.4458 18.8306C8.26005 18.6448 8.03951 18.4975 7.79679 18.397C7.55407 18.2966 7.29393 18.245 7.03124 18.2451H4.98242V14.4111C7.00203 13.4225 8.75182 11.9589 10.0819 10.1458C11.4119 8.33276 12.2825 6.22425 12.6191 4.00098H15V12.1904C14.9999 12.4531 15.0515 12.7133 15.1519 12.956C15.2524 13.1987 15.3997 13.4192 15.5855 13.605C15.7712 13.7907 15.9917 13.938 16.2345 14.0385C16.4772 14.139 16.7373 14.1906 17 14.1904H23.004V18.001H16.9708C16.7081 18.0008 16.448 18.0525 16.2053 18.1529C15.9625 18.2534 15.742 18.4007 15.5562 18.5864C15.3705 18.7722 15.2232 18.9927 15.1227 19.2354C15.0223 19.4781 14.9707 19.7383 14.9708 20.001V30.7295C14.9431 31.5513 15.0804 32.3704 15.3746 33.1383C15.6688 33.9061 16.114 34.6073 16.6837 35.2002C17.2453 35.7163 17.9075 36.1108 18.6288 36.3588C19.3501 36.6069 20.1149 36.7031 20.8751 36.6416C21.5117 36.6173 22.1453 36.5415 22.7696 36.415L23.6192 38.9326C22.1714 39.594 20.6049 39.956 19.0137 39.9971V39.9971Z" fill="white"/>
</svg>
