<svg width="45" height="41" viewBox="0 0 45 41" fill="none" xmlns="http://www.w3.org/2000/svg">
<path d="M38.7917 6.95319H31.4316V5.17447C31.4316 3.71915 30.8977 2.49291 29.8298 1.49574C28.7618 0.498582 27.4486 0 25.89 0H18.4434C16.8848 0 15.5715 0.498582 14.5036 1.49574C13.4357 2.49291 12.9017 3.71915 12.9017 5.17447V6.95319H5.54167C3.98307 6.95319 2.66981 7.4383 1.60189 8.40851C0.533963 9.37872 0 10.6184 0 12.1277V19C0 20.1319 0.60612 20.6979 1.81836 20.6979V34.5234C1.81836 35.4397 2.19358 36.2482 2.94401 36.9489C3.69444 37.6496 4.56033 38 5.54167 38H38.7917C39.773 38 40.6389 37.6496 41.3893 36.9489C42.1398 36.2482 42.515 35.4397 42.515 34.5234V20.6979C43.7272 20.6979 44.3333 20.1319 44.3333 19V12.1277C44.3333 10.6184 43.7994 9.37872 42.7314 8.40851C41.6635 7.4383 40.3503 6.95319 38.7917 6.95319ZM16.625 5.17447C16.625 4.68936 16.7982 4.28511 17.1445 3.9617C17.4909 3.6383 17.9238 3.4766 18.4434 3.4766H25.89C26.4095 3.4766 26.8424 3.6383 27.1888 3.9617C27.5352 4.28511 27.7083 4.68936 27.7083 5.17447V6.95319H16.625V5.17447ZM5.54167 34.5234V20.6979H16.625V25.8723C16.625 26.8426 16.9858 27.6645 17.7074 28.3383C18.4289 29.0121 19.3092 29.3489 20.3483 29.3489H23.985C25.0241 29.3489 25.9044 29.0121 26.626 28.3383C27.3475 27.6645 27.7083 26.8426 27.7083 25.8723V20.6979H38.7917V34.5234H5.54167ZM20.3483 25.8723V20.6979H23.985V25.8723H20.3483ZM40.61 17.3021H3.72331V12.1277C3.72331 10.9418 4.32943 10.3489 5.54167 10.3489H38.7917C40.0039 10.3489 40.61 10.9418 40.61 12.1277V17.3021Z" fill="#E9A94E"/>
</svg>
